<svg width="13" height="9" viewBox="0 0 13 9" fill="none" xmlns="http://www.w3.org/2000/svg">
<path d="M6.23782 4.77333L1.98654 8.43993C1.6927 8.69336 1.21755 8.69336 0.926842 8.43993L0.220379 7.83063C-0.0734596 7.5772 -0.0734596 7.1674 0.220379 6.91667L3.23379 4.3177L0.220379 1.71872C-0.0734596 1.46529 -0.0734596 1.0555 0.220379 0.804766L0.923716 0.19007C1.21755 -0.0633568 1.6927 -0.0633568 1.98341 0.19007L6.23469 3.85667C6.53165 4.1101 6.53165 4.5199 6.23782 4.77333ZM12.2396 3.85667L7.98834 0.19007C7.6945 -0.0633568 7.21936 -0.0633568 6.92865 0.19007L6.22219 0.799374C5.92835 1.0528 5.92835 1.4626 6.22219 1.71333L9.23559 4.3123L6.22219 6.91128C5.92835 7.16471 5.92835 7.5745 6.22219 7.82523L6.92865 8.43454C7.22249 8.68796 7.69763 8.68796 7.98834 8.43454L12.2396 4.76793C12.5335 4.5199 12.5335 4.1101 12.2396 3.85667Z" fill="black"/>
</svg>
