<svg width="30" height="25" viewBox="0 0 30 25" fill="none" xmlns="http://www.w3.org/2000/svg">
<path d="M14.6023 6.34038L5.0004 14.6253V23.567C5.0004 23.7986 5.08819 24.0206 5.24445 24.1843C5.40072 24.348 5.61267 24.44 5.83366 24.44L11.6697 24.4242C11.8899 24.423 12.1008 24.3305 12.2562 24.167C12.4116 24.0034 12.4988 23.782 12.4988 23.5512V18.3293C12.4988 18.0978 12.5866 17.8758 12.7428 17.712C12.8991 17.5483 13.111 17.4564 13.332 17.4564H16.6651C16.8861 17.4564 17.0981 17.5483 17.2543 17.712C17.4106 17.8758 17.4984 18.0978 17.4984 18.3293V23.5474C17.498 23.6623 17.5193 23.7761 17.5611 23.8823C17.6028 23.9885 17.6641 24.0851 17.7415 24.1664C17.8189 24.2478 17.9109 24.3123 18.0122 24.3564C18.1134 24.4004 18.222 24.4231 18.3317 24.4231L24.1656 24.44C24.3866 24.44 24.5985 24.348 24.7548 24.1843C24.9111 24.0206 24.9989 23.7986 24.9989 23.567V14.6193L15.3991 6.34038C15.2862 6.24508 15.1456 6.19311 15.0007 6.19311C14.8557 6.19311 14.7151 6.24508 14.6023 6.34038ZM29.7693 11.9715L25.4155 8.21177V0.654716C25.4155 0.481074 25.3496 0.314545 25.2324 0.191762C25.1152 0.0689789 24.9563 0 24.7905 0H21.8741C21.7083 0 21.5494 0.0689789 21.4322 0.191762C21.315 0.314545 21.2491 0.481074 21.2491 0.654716V4.61629L16.5865 0.597428C16.139 0.21168 15.5775 0.000771116 14.9981 0.000771116C14.4186 0.000771116 13.8571 0.21168 13.4096 0.597428L0.226805 11.9715C0.163522 12.0263 0.111165 12.0936 0.0727266 12.1696C0.0342879 12.2456 0.0105204 12.3288 0.00278216 12.4144C-0.0049561 12.5001 0.00348653 12.5864 0.0276277 12.6686C0.0517688 12.7509 0.0911353 12.8273 0.143478 12.8935L1.4715 14.5849C1.5237 14.6514 1.58791 14.7064 1.66044 14.7469C1.73298 14.7874 1.81242 14.8125 1.89422 14.8207C1.97603 14.829 2.05858 14.8203 2.13716 14.795C2.21574 14.7698 2.2888 14.7286 2.35216 14.6738L14.6023 4.10343C14.7151 4.00813 14.8557 3.95616 15.0007 3.95616C15.1456 3.95616 15.2862 4.00813 15.3991 4.10343L27.6497 14.6738C27.7129 14.7287 27.7859 14.7699 27.8644 14.7952C27.9428 14.8205 28.0253 14.8293 28.107 14.8212C28.1888 14.8131 28.2682 14.7882 28.3407 14.7479C28.4133 14.7077 28.4775 14.6528 28.5298 14.5865L29.8579 12.8952C29.9101 12.8285 29.9493 12.7517 29.9732 12.6691C29.9971 12.5866 30.0051 12.4999 29.9969 12.414C29.9886 12.3282 29.9643 12.2449 29.9253 12.169C29.8862 12.093 29.8332 12.0259 29.7693 11.9715Z" fill="white"/>
</svg>
