<svg width="14" height="20" viewBox="0 0 14 20" fill="none" xmlns="http://www.w3.org/2000/svg">
<path d="M6.16845 19.5965C0.965723 11.3684 0 10.5239 0 7.5C0 3.35785 3.07803 0 6.875 0C10.672 0 13.75 3.35785 13.75 7.5C13.75 10.5239 12.7843 11.3684 7.58155 19.5965C7.24013 20.1345 6.50984 20.1345 6.16845 19.5965ZM6.875 10.625C8.45707 10.625 9.73958 9.2259 9.73958 7.5C9.73958 5.7741 8.45707 4.375 6.875 4.375C5.29293 4.375 4.01042 5.7741 4.01042 7.5C4.01042 9.2259 5.29293 10.625 6.875 10.625Z" fill="black"/>
</svg>
