<svg width="45" height="50" viewBox="0 0 45 50" fill="none" xmlns="http://www.w3.org/2000/svg">
<path d="M43.3125 7.14286C44.2444 7.14286 45 6.54319 45 5.80357V1.33929C45 0.599665 44.2444 0 43.3125 0H1.6875C0.755578 0 0 0.599665 0 1.33929V6.33348C0 7.0731 0.755578 7.67277 1.6875 7.67277H13.68C17.5202 7.67277 20.4667 8.78415 22.2539 10.7143H1.6875C0.755578 10.7143 0 11.314 0 12.0536V16.5179C0 17.2575 0.755578 17.8571 1.6875 17.8571H24.0127C23.1384 21.8846 19.3776 24.4009 13.5 24.4009H1.6875C0.755578 24.4009 0 25.0006 0 25.7402V31.6567C0 32.0305 0.196875 32.3873 0.542953 32.6409L23.7534 49.6449C24.0651 49.8732 24.4737 50 24.8979 50H36.5082C38.0444 50 38.7816 48.5036 37.6528 47.6766L16.435 32.1324C27.1927 31.8712 34.8771 26.1731 35.886 17.8571H43.3125C44.2444 17.8571 45 17.2575 45 16.5179V12.0536C45 11.314 44.2444 10.7143 43.3125 10.7143H35.0592C34.569 9.42623 33.8948 8.23147 33.055 7.14286H43.3125Z" fill="#E1E2E3"/>
</svg>
