<svg width="20" height="18" viewBox="0 0 20 18" fill="none" xmlns="http://www.w3.org/2000/svg">
<path d="M10 0C7.58368 0 5.625 1.89723 5.625 4.23773C5.625 6.12992 8.48438 9.57862 9.57986 10.8304C9.80174 11.084 10.1986 11.084 10.4201 10.8304C11.5156 9.57862 14.375 6.12992 14.375 4.23773C14.375 1.89723 12.4163 0 10 0ZM10 5.65031C9.19444 5.65031 8.54167 5.01802 8.54167 4.23773C8.54167 3.45745 9.19444 2.82516 10 2.82516C10.8056 2.82516 11.4583 3.45745 11.4583 4.23773C11.4583 5.01802 10.8056 5.65031 10 5.65031ZM0.698611 7.26301C0.492423 7.34289 0.31567 7.48077 0.191149 7.65888C0.066628 7.83698 4.93822e-05 8.04713 0 8.26224L0 16.6812C0 17.0619 0.396875 17.3222 0.761806 17.181L5.55556 15.0675V7.22836C5.24861 6.69091 4.99757 6.16758 4.81771 5.66713L0.698611 7.26301ZM10 12.0967C9.51146 12.0967 9.04931 11.8889 8.73229 11.5263C8.04965 10.746 7.32361 9.85744 6.66667 8.94599V15.0672L13.3333 17.2197V8.94633C12.6764 9.85744 11.9507 10.7464 11.2677 11.5266C10.9507 11.8889 10.4885 12.0967 10 12.0967ZM19.2382 5.42026L14.4444 7.53375V17.22L19.3014 15.3382C19.5076 15.2584 19.6844 15.1205 19.8089 14.9424C19.9334 14.7643 20 14.5541 20 14.339V5.92005C20 5.53932 19.6031 5.27901 19.2382 5.42026Z" fill="black"/>
</svg>
