<svg width="13" height="20" viewBox="0 0 13 20" fill="none" xmlns="http://www.w3.org/2000/svg">
<path d="M10.7355 0H1.8945C0.848578 0 0 0.839844 0 1.875V18.125C0 19.1602 0.848578 20 1.8945 20H10.7355C11.7814 20 12.63 19.1602 12.63 18.125V1.875C12.63 0.839844 11.7814 0 10.7355 0ZM6.315 18.75C5.6164 18.75 5.052 18.1914 5.052 17.5C5.052 16.8086 5.6164 16.25 6.315 16.25C7.0136 16.25 7.578 16.8086 7.578 17.5C7.578 18.1914 7.0136 18.75 6.315 18.75ZM10.7355 14.5312C10.7355 14.7891 10.5224 15 10.2619 15H2.36812C2.10763 15 1.8945 14.7891 1.8945 14.5312V2.34375C1.8945 2.08594 2.10763 1.875 2.36812 1.875H10.2619C10.5224 1.875 10.7355 2.08594 10.7355 2.34375V14.5312Z" fill="black"/>
</svg>
