<svg width="25" height="25" viewBox="0 0 25 25" fill="none" xmlns="http://www.w3.org/2000/svg">
<path d="M24.6807 15.504L22.4377 14.2641C22.6641 13.0948 22.6641 11.8952 22.4377 10.7258L24.6807 9.4859C24.9387 9.34477 25.0545 9.05243 24.9703 8.78026C24.3858 6.98591 23.3907 5.36293 22.0902 4.01213C21.8902 3.80548 21.5637 3.75507 21.311 3.8962L19.068 5.13612C18.1256 4.35991 17.041 3.76011 15.8668 3.36697V0.892181C15.8668 0.609924 15.6615 0.362949 15.3719 0.302465C13.4396 -0.110839 11.4599 -0.0906782 9.62237 0.302465C9.33279 0.362949 9.12745 0.609924 9.12745 0.892181V3.37201C7.95859 3.77019 6.87397 4.36999 5.92624 5.14116L3.68855 3.90124C3.43056 3.76011 3.10939 3.80548 2.90931 4.01717C1.60882 5.36293 0.613711 6.98591 0.0292805 8.7853C-0.060227 9.05747 0.0608713 9.34981 0.318863 9.49094L2.56181 10.7309C2.33541 11.9002 2.33541 13.0998 2.56181 14.2691L0.318863 15.5091C0.0608713 15.6502 -0.0549618 15.9425 0.0292805 16.2147C0.613711 18.0091 1.60882 19.632 2.90931 20.9828C3.10939 21.1895 3.43583 21.2399 3.68855 21.0988L5.93151 19.8588C6.87397 20.635 7.95859 21.2348 9.13271 21.628V24.1078C9.13271 24.3901 9.33805 24.6371 9.62764 24.6975C11.5599 25.1108 13.5396 25.0907 15.3772 24.6975C15.6668 24.6371 15.8721 24.3901 15.8721 24.1078V21.628C17.041 21.2298 18.1256 20.63 19.0733 19.8588L21.3163 21.0988C21.5742 21.2399 21.8954 21.1945 22.0955 20.9828C23.396 19.6371 24.3911 18.0141 24.9755 16.2147C25.0545 15.9375 24.9387 15.6451 24.6807 15.504ZM12.4971 16.5272C10.1752 16.5272 8.28503 14.7177 8.28503 12.495C8.28503 10.2722 10.1752 8.46272 12.4971 8.46272C14.8191 8.46272 16.7093 10.2722 16.7093 12.495C16.7093 14.7177 14.8191 16.5272 12.4971 16.5272Z" fill="white"/>
</svg>
