<svg width="20" height="13" viewBox="0 0 20 13" fill="none" xmlns="http://www.w3.org/2000/svg">
<path d="M16.8 5.42969C16.9281 5.13114 17 4.80469 17 4.46429C17 2.98549 15.6562 1.78571 14 1.78571C13.3844 1.78571 12.8094 1.95312 12.3344 2.23772C11.4688 0.898437 9.85312 0 8 0C5.2375 0 3 1.99777 3 4.46429C3 4.53962 3.00312 4.61496 3.00625 4.69029C1.25625 5.23996 0 6.72991 0 8.48214C0 10.7003 2.01562 12.5 4.5 12.5H16C18.2094 12.5 20 10.9012 20 8.92857C20 7.20145 18.625 5.75893 16.8 5.42969ZM12.2937 7.14286H10.25V10.2679C10.25 10.5134 10.025 10.7143 9.75 10.7143H8.25C7.975 10.7143 7.75 10.5134 7.75 10.2679V7.14286H5.70625C5.25938 7.14286 5.0375 6.66295 5.35313 6.38114L8.64688 3.44029C8.84063 3.2673 9.15937 3.2673 9.35312 3.44029L12.6469 6.38114C12.9625 6.66295 12.7375 7.14286 12.2937 7.14286Z" fill="black"/>
</svg>
