<svg width="76" height="53" viewBox="0 0 76 53" fill="none" xmlns="http://www.w3.org/2000/svg">
<g filter="url(#filter0_d_2_2004)">
<path d="M40.927 25.8358H39.2485V15.686C39.2485 15.1762 38.8729 14.7633 38.4092 14.7633H36.9846C36.4874 14.7633 36.0016 14.9248 35.5883 15.2281L33.9801 16.4069C33.8884 16.474 33.8096 16.5604 33.7483 16.661C33.6869 16.7617 33.6442 16.8746 33.6226 16.9934C33.6009 17.1122 33.6008 17.2345 33.6222 17.3533C33.6436 17.4722 33.6861 17.5852 33.7472 17.686L34.6788 19.2212C34.7398 19.322 34.8184 19.4086 34.9099 19.4761C35.0015 19.5435 35.1042 19.5905 35.2122 19.6143C35.3203 19.638 35.4315 19.6382 35.5396 19.6147C35.6477 19.5911 35.7505 19.5444 35.8422 19.4772L35.8915 19.4415V25.8358H34.213C33.7493 25.8358 33.3737 26.2487 33.3737 26.7585V28.604C33.3737 29.1138 33.7493 29.5267 34.213 29.5267H40.927C41.3907 29.5267 41.7662 29.1138 41.7662 28.604V26.7585C41.7662 26.2487 41.3907 25.8358 40.927 25.8358ZM67.783 0H7.357C5.50331 0 4 1.6528 4 3.69083V40.5992C4 42.6372 5.50331 44.29 7.357 44.29H67.783C69.6367 44.29 71.14 42.6372 71.14 40.5992V3.69083C71.14 1.6528 69.6367 0 67.783 0ZM9.0355 38.7537V31.3721C12.7439 31.3721 15.7495 34.6765 15.7495 38.7537H9.0355ZM9.0355 12.9179V5.53625H15.7495C15.7495 9.61347 12.7439 12.9179 9.0355 12.9179ZM37.57 35.0629C32.0079 35.0629 27.499 29.2787 27.499 22.145C27.499 15.0102 32.0079 9.22708 37.57 9.22708C43.1321 9.22708 47.641 15.0102 47.641 22.145C47.641 29.281 43.13 35.0629 37.57 35.0629ZM66.1045 38.7537H59.3905C59.3905 34.6765 62.3961 31.3721 66.1045 31.3721V38.7537ZM66.1045 12.9179C62.3961 12.9179 59.3905 9.61347 59.3905 5.53625H66.1045V12.9179Z" fill="#F9A519"/>
</g>
<defs>
<filter id="filter0_d_2_2004" x="0" y="0" width="75.1399" height="52.29" filterUnits="userSpaceOnUse" color-interpolation-filters="sRGB">
<feFlood flood-opacity="0" result="BackgroundImageFix"/>
<feColorMatrix in="SourceAlpha" type="matrix" values="0 0 0 0 0 0 0 0 0 0 0 0 0 0 0 0 0 0 127 0" result="hardAlpha"/>
<feOffset dy="4"/>
<feGaussianBlur stdDeviation="2"/>
<feComposite in2="hardAlpha" operator="out"/>
<feColorMatrix type="matrix" values="0 0 0 0 0.968627 0 0 0 0 0.580392 0 0 0 0 0.109804 0 0 0 0.5 0"/>
<feBlend mode="normal" in2="BackgroundImageFix" result="effect1_dropShadow_2_2004"/>
<feBlend mode="normal" in="SourceGraphic" in2="effect1_dropShadow_2_2004" result="shape"/>
</filter>
</defs>
</svg>
